Patient4_TMGait_0pt7_01_right_45_EMG.mot
version=1
nRows=23
nColumns=33
inDegrees=no
endheader
time	1LAddLong	2LGlutMax	3LGlutMed	4LIliopsoas	5LSemiMemb	6LBicFemLong	7LRecFem	8LVastMed	9LVastLat	10LGasMed	11LTibAnt	12lTibPost	13LPeroneusLong	14LSol	15LExtDigLong	16LFlexDigLong	17RAddLong	18RGlutMax	19RGlutMed	20RIliopsoas	21RSemiMemb	22RBicFemLong	23RRecFem	24RVastMed	25RVastLat	26RGasMed	27RTibAnt	28RTibPost	29RPeroneusLong	30RSol	31RExtDigLong	32RFlexDigLong
52.01	-0.00351	-0.15595	-0.24719	-0.026703	0.012054	0.027313	0.15854	-0.005951	0.23377	-0.010681	0.005493	0.024719	-0.11429	0.13412	-0.19104	0.006866	0.053253	0.2829	1.1397	0.28122	-1.2204	0.010529	-0.50446	-0.21408	-0.22049	-0.053406	-0.041656	-0.085297	-0.032349	-0.046234	-0.003662	0.007019
52.011	-0.00473	-0.19806	-0.22293	-0.027161	0.00351	0.046539	0.17471	-0.007324	0.22186	0.000916	-0.020447	0.022125	-0.11215	0.081329	0.093689	0.007477	-0.081635	0.30167	-0.72601	0.23086	-1.0307	0.0177	-0.5307	-0.09964	-0.24139	-0.010681	-0.062561	-0.068054	-0.026703	-0.098267	-0.005341	0.018616
52.012	-0.008392	-0.23789	-0.22903	-0.001678	0.006561	0.033722	0.2034	-0.00412	0.22934	-0.028839	-0.016785	0.021057	-0.11154	0.076752	-0.095673	0.014954	-0.077362	0.3305	-1.0071	0.084534	0.004272	-0.005341	-0.54733	-0.01297	-0.27649	0.11002	-0.03418	0.082703	0.19424	-0.065308	-0.00412	0.005188
52.013	-0.005646	-0.26993	-0.25009	0.016479	-0.001678	0.03952	0.20279	-0.00061	0.22781	-0.033722	-0.040741	0.023346	-0.086365	0.10651	0.007935	0.010223	-0.054016	0.40115	-0.65704	0.029449	0.40192	-0.13184	-0.59723	0.21118	-0.27283	0.2626	0.03006	-0.036621	0.31128	0.007172	-0.006561	0.011597
52.014	-0.002289	-0.32303	-0.27893	0.025482	0.001221	0.023956	0.21606	0	0.24963	-0.04425	-0.062866	0.022125	-0.083313	0.11871	-0.16083	0.006561	-0.023956	0.36865	-0.93765	0.037689	0.45792	-0.4567	-0.74677	0.15778	-0.21896	0.079803	0.094452	-0.05722	0.37903	0.12268	-0.005035	0.016632
52.015	-0.003204	-0.32028	-0.31815	0.007019	0.000153	0.012665	0.21851	0.004578	0.26794	-0.045776	-0.032196	0.016632	-0.10407	0.1033	0.15564	0.017395	0.053558	0.24139	-0.78049	-0.026398	0.31616	-0.74997	-0.75119	0.028839	-0.22705	-0.013123	0.072021	-0.072784	0.23468	0.24353	-0.005035	0.008392
52.016	0.007172	-0.3421	-0.32318	0.007629	0.00061	0.017853	0.24033	-0.000916	0.27771	-0.038452	0.010986	0.014801	-0.098114	0.081329	-0.16632	0.020142	0.04837	0.15335	0.15182	-0.1622	0.009766	-0.50156	-0.65628	-0.001526	-0.2272	-0.040283	0.06958	-0.03067	0.030975	0.31693	0.003662	0.023041
52.017	0.007935	-0.32852	-0.28366	0.019836	0.008392	-0.015411	0.27786	-0.003815	0.25864	-0.041351	0.045013	0.013733	-0.1152	0.080872	-0.1564	0.011139	0.004883	0.027161	0.59265	-0.168	-0.52338	-0.32318	-0.63309	-0.003357	-0.26657	-0.016785	0.06012	0.002441	-0.13626	0.03418	-0.007629	0.023651
52.018	0.001984	-0.31403	-0.31097	0.048065	0.014954	-0.024109	0.28946	-0.006714	0.27512	-0.021362	-0.015259	0.007172	-0.15595	0.07309	-0.1059	0.013733	-0.058594	0.007935	-0.65536	-0.039978	-0.86151	0.022278	-0.61569	0.025787	-0.26672	0.022888	0.11093	-0.055084	-0.021973	-0.2742	-0.003052	0.014496
52.019	-0.005341	-0.32883	-0.31326	0.02594	0.004272	-0.013275	0.30441	-0.00412	0.29495	-0.002136	-0.047913	0.009308	-0.19409	0.08255	-0.090027	0.034943	-0.096436	-0.039368	-1.6315	-0.004425	-0.59403	0.19653	-0.56442	0.067596	-0.29404	0.052948	0.037384	0.031586	1.1316	-0.6749	0.000153	0.009155
52.02	-0.00412	-0.35156	-0.3363	0.004883	0.021515	0.010834	0.31464	-0.008392	0.28153	0.023499	-0.014801	0.012665	-0.24429	0.11414	-0.033569	0.02121	-0.093536	-0.041962	-1.5692	-0.050049	0.15961	0.11917	-0.50522	0.094147	-0.22812	-0.15243	0.06546	-0.040131	0.74188	-0.63507	-0.002899	0.006561
52.021	-0.002747	-0.33951	-0.30777	0.014038	0.01297	-0.000153	0.31189	-0.001831	0.28275	0.005646	0.32684	0.002899	-0.26245	0.13443	0.17563	0.030518	-0.0177	-0.05188	-0.76508	-0.075531	0.42328	0.052948	-0.50003	0.10696	-0.16556	-0.34119	0.12543	-0.027008	0.11948	-0.39581	-0.002441	0.007324
52.022	-0.00885	-0.33768	-0.27313	0.020294	-0.006409	-0.014343	0.31311	-0.000305	0.27664	-0.04837	0.54459	0.006866	-0.0914	0.22476	-0.037994	0.029144	0.016785	-0.17181	-0.41382	-0.074921	0.35873	-0.10635	-0.42145	0.039368	-0.10666	-0.042572	0.049591	-0.091858	-0.58746	-0.1741	0.000763	0.007477
52.023	-0.009308	-0.32181	-0.26382	0.021973	-0.021973	-0.035858	0.34347	-0.005341	0.26794	-0.13519	0.63522	0.006714	0.059814	0.31876	0.92819	0.04715	-0.02655	-0.27817	-0.5072	-0.062561	0.21027	-0.24612	-0.19836	0.10208	-0.059357	0.084076	-0.078278	-0.12344	-0.79453	-0.34851	-0.003357	0.005035
52.024	-0.007324	-0.35111	-0.25559	0.01297	-0.019226	-0.064545	0.36819	-0.001678	0.25177	-0.1178	0.50888	0.003815	0.063782	0.35721	1.6229	0.037079	-0.090942	-0.32074	-0.65918	-0.10666	0.021973	-0.33402	-0.020905	0.067596	-0.068665	0.22293	-0.072632	-0.054779	-0.56839	-0.55542	-0.001221	0.00061
52.025	-0.013733	-0.35461	-0.24719	-0.024719	-0.003662	-0.083771	0.38254	0	0.23041	-0.11398	-0.28046	0.013885	0.005798	0.38513	0.72876	0.035248	-0.053406	-0.26901	-0.67215	-0.072479	-0.085907	-0.36636	0.077209	-0.001068	-0.10208	0.17716	0.064545	-0.033112	-0.21668	-0.72815	-0.004883	-0.008698
52.026	-0.006256	-0.3743	-0.20477	-0.054932	0.014191	-0.12238	0.39246	0.001221	0.24048	-0.098877	-0.65033	0.010681	-0.028992	0.40787	-0.080566	0.022125	-0.046692	-0.27802	-1.1893	-0.049591	-0.005646	-0.040894	0.20859	0.058899	-0.13016	0.017395	0.11902	-0.20752	-0.09964	0.072174	-0.005798	0.004272
52.027	-0.012207	-0.42633	-0.16113	-0.034943	0.038757	-0.085297	0.40894	0.001373	0.21515	-0.097351	-0.6488	0.00824	-0.007477	0.40436	-0.65308	0.037689	-0.077667	-0.36179	-0.91782	-0.088043	0.079803	0.38803	0.41779	0.039978	-0.14999	-0.003967	0.13809	0.17792	-0.16525	0.20538	-0.003662	-0.005188
52.028	-0.022278	-0.46356	-0.16403	-0.008392	0.040588	0.004272	0.41748	0.006256	0.21759	-0.093994	-0.46463	0.016174	0.006409	0.37476	-0.59036	0.033264	-0.061798	-0.3093	-0.64636	0.029755	-0.020599	0.67719	0.51086	0.014954	-0.18097	-0.098877	0.064545	0.25604	0.20523	0.42404	-0.001068	-0.003967
52.029	-0.015717	-0.47195	-0.16296	-0.003052	0.017853	0.026093	0.42313	0.007019	0.22598	-0.09613	-0.13336	0.010529	-0.019531	0.19211	-0.53955	0.019836	-0.088348	-0.25604	-0.87418	0.16663	-0.06958	0.59967	0.50323	0.2214	-0.13107	-0.15564	0.061188	0.10498	0.61264	0.61493	-0.000763	-0.00885
52.03	-0.02655	-0.4953	-0.12924	-0.043793	-0.001526	-0.058136	0.41718	0.003052	0.20081	-0.12726	-0.033264	0.017242	0.016479	0.037384	-0.46188	0.020599	-0.11185	-0.22171	-1.1638	0.19684	0.16754	0.35355	0.66208	0.28564	-0.12726	-0.23712	0.074768	-0.00824	0.58899	-0.32562	-0.000458	-0.008087
52.031	-0.029907	-0.54627	-0.12894	-0.026703	0.014038	-0.084076	0.4187	0.006714	0.20386	-0.11292	-0.090332	0.014648	-0.014648	-0.16174	-0.5481	0.014954	-0.056763	-0.088043	-1.2422	0.11765	0.076447	0.14297	0.81116	0.23285	-0.15579	-0.36926	-0.017395	-0.052185	0.61951	-0.27542	-0.002899	0.000153
52.032	-0.040741	-0.49683	-0.1088	0.028229	0.031433	-0.112	0.40085	0.009766	0.19196	-0.098419	-0.23178	0.001831	-0.067444	-0.13657	-0.70908	-0.002289	-0.025482	-0.010071	-0.49057	0.10544	-0.014038	-0.017242	0.88638	0.20096	-0.1767	-0.2388	0.12772	-0.057678	0.61859	0.37628	-0.003052	-0.003815
